<mxfile host="Electron" agent="Mozilla/5.0 (Windows NT 10.0; Win64; x64) AppleWebKit/537.36 (KHTML, like Gecko) draw.io/27.0.5 Chrome/134.0.6998.205 Electron/35.3.0 Safari/537.36" version="27.0.5">
  <diagram name="第 1 页" id="qYCC977JJtGFKBxbnr1P">
    <mxGraphModel dx="969" dy="597" grid="1" gridSize="10" guides="1" tooltips="1" connect="1" arrows="1" fold="1" page="1" pageScale="1" pageWidth="827" pageHeight="1169" math="0" shadow="0">
      <root>
        <mxCell id="0" />
        <mxCell id="1" parent="0" />
        <mxCell id="83ebNcft9Qn9WwzoEkK6-1" value="" style="swimlane;childLayout=stackLayout;resizeParent=1;resizeParentMax=0;startSize=0;html=1;" parent="1" vertex="1">
          <mxGeometry x="40.000000000000455" y="40" width="560" height="840" as="geometry">
            <mxRectangle x="150.00000000000045" y="-20" width="60" height="30" as="alternateBounds" />
          </mxGeometry>
        </mxCell>
        <mxCell id="83ebNcft9Qn9WwzoEkK6-2" value="使用者" style="swimlane;startSize=20;html=1;" parent="83ebNcft9Qn9WwzoEkK6-1" vertex="1">
          <mxGeometry width="240" height="840" as="geometry">
            <mxRectangle width="40" height="480" as="alternateBounds" />
          </mxGeometry>
        </mxCell>
        <mxCell id="83ebNcft9Qn9WwzoEkK6-6" value="" style="edgeStyle=orthogonalEdgeStyle;html=1;verticalAlign=bottom;endArrow=open;endSize=8;strokeColor=#ff0000;rounded=0;entryX=0.5;entryY=0;entryDx=0;entryDy=0;exitX=0.5;exitY=0.5;exitDx=0;exitDy=0;exitPerimeter=0;" parent="83ebNcft9Qn9WwzoEkK6-2" source="83ebNcft9Qn9WwzoEkK6-5" edge="1">
          <mxGeometry relative="1" as="geometry">
            <mxPoint x="159.99999999999943" y="120" as="targetPoint" />
            <mxPoint x="159.7499999999996" y="70" as="sourcePoint" />
          </mxGeometry>
        </mxCell>
        <mxCell id="83ebNcft9Qn9WwzoEkK6-5" value="" style="ellipse;html=1;shape=startState;fillColor=#000000;strokeColor=#ff0000;" parent="83ebNcft9Qn9WwzoEkK6-2" vertex="1">
          <mxGeometry x="144.99999999999955" y="45" width="30" height="30" as="geometry" />
        </mxCell>
        <mxCell id="fRDfow7sSML30dH6lYbr-1" value="&lt;span style=&quot;background-color: transparent; color: light-dark(rgb(0, 0, 0), rgb(237, 237, 237));&quot;&gt;收藏介面&lt;/span&gt;" style="rounded=1;whiteSpace=wrap;html=1;arcSize=40;fontColor=#000000;fillColor=#ffffc0;strokeColor=#ff0000;" vertex="1" parent="83ebNcft9Qn9WwzoEkK6-2">
          <mxGeometry x="99.99999999999909" y="120" width="120" height="40" as="geometry" />
        </mxCell>
        <mxCell id="fRDfow7sSML30dH6lYbr-2" value="進入列表" style="rounded=1;whiteSpace=wrap;html=1;arcSize=40;fontColor=#000000;fillColor=#ffffc0;strokeColor=#ff0000;" vertex="1" parent="83ebNcft9Qn9WwzoEkK6-2">
          <mxGeometry x="99.99999999999955" y="200" width="120" height="40" as="geometry" />
        </mxCell>
        <mxCell id="fRDfow7sSML30dH6lYbr-3" value="" style="edgeStyle=orthogonalEdgeStyle;html=1;verticalAlign=bottom;endArrow=open;endSize=8;strokeColor=#ff0000;rounded=0;" edge="1" parent="83ebNcft9Qn9WwzoEkK6-2" source="fRDfow7sSML30dH6lYbr-2">
          <mxGeometry relative="1" as="geometry">
            <mxPoint x="159.99999999999955" y="280" as="targetPoint" />
          </mxGeometry>
        </mxCell>
        <mxCell id="fRDfow7sSML30dH6lYbr-4" value="" style="edgeStyle=orthogonalEdgeStyle;html=1;verticalAlign=bottom;endArrow=open;endSize=8;strokeColor=#ff0000;rounded=0;exitX=0.5;exitY=1;exitDx=0;exitDy=0;" edge="1" parent="83ebNcft9Qn9WwzoEkK6-2" source="fRDfow7sSML30dH6lYbr-1">
          <mxGeometry relative="1" as="geometry">
            <mxPoint x="159.99999999999955" y="200" as="targetPoint" />
          </mxGeometry>
        </mxCell>
        <mxCell id="83ebNcft9Qn9WwzoEkK6-51" value="" style="ellipse;html=1;shape=endState;fillColor=#000000;strokeColor=#ff0000;" parent="83ebNcft9Qn9WwzoEkK6-2" vertex="1">
          <mxGeometry x="144.99999999999955" y="685" width="30" height="30" as="geometry" />
        </mxCell>
        <mxCell id="-Z59WbJycSz_Zz4nOEAD-1" value="點選列表名稱" style="rounded=1;whiteSpace=wrap;html=1;arcSize=40;fontColor=#000000;fillColor=#ffffc0;strokeColor=#ff0000;" parent="83ebNcft9Qn9WwzoEkK6-2" vertex="1">
          <mxGeometry x="99.99999999999955" y="280" width="120" height="40" as="geometry" />
        </mxCell>
        <mxCell id="-Z59WbJycSz_Zz4nOEAD-2" value="" style="edgeStyle=orthogonalEdgeStyle;html=1;verticalAlign=bottom;endArrow=open;endSize=8;strokeColor=#ff0000;rounded=0;" parent="83ebNcft9Qn9WwzoEkK6-2" source="-Z59WbJycSz_Zz4nOEAD-1" edge="1">
          <mxGeometry relative="1" as="geometry">
            <mxPoint x="159.99999999999955" y="360" as="targetPoint" />
          </mxGeometry>
        </mxCell>
        <mxCell id="-Z59WbJycSz_Zz4nOEAD-4" value="編輯列表名稱" style="rounded=1;whiteSpace=wrap;html=1;arcSize=40;fontColor=#000000;fillColor=#ffffc0;strokeColor=#ff0000;" parent="83ebNcft9Qn9WwzoEkK6-2" vertex="1">
          <mxGeometry x="99.99999999999955" y="360" width="120" height="40" as="geometry" />
        </mxCell>
        <mxCell id="-Z59WbJycSz_Zz4nOEAD-5" value="" style="edgeStyle=orthogonalEdgeStyle;html=1;verticalAlign=bottom;endArrow=open;endSize=8;strokeColor=#ff0000;rounded=0;" parent="83ebNcft9Qn9WwzoEkK6-2" source="-Z59WbJycSz_Zz4nOEAD-4" edge="1">
          <mxGeometry relative="1" as="geometry">
            <mxPoint x="159.99999999999955" y="440" as="targetPoint" />
          </mxGeometry>
        </mxCell>
        <mxCell id="-Z59WbJycSz_Zz4nOEAD-6" value="點選儲存變更" style="rounded=1;whiteSpace=wrap;html=1;arcSize=40;fontColor=#000000;fillColor=#ffffc0;strokeColor=#ff0000;" parent="83ebNcft9Qn9WwzoEkK6-2" vertex="1">
          <mxGeometry x="99.99999999999955" y="440" width="120" height="40" as="geometry" />
        </mxCell>
        <mxCell id="-Z59WbJycSz_Zz4nOEAD-7" value="" style="edgeStyle=orthogonalEdgeStyle;html=1;verticalAlign=bottom;endArrow=open;endSize=8;strokeColor=#ff0000;rounded=0;exitX=1;exitY=0.5;exitDx=0;exitDy=0;" parent="83ebNcft9Qn9WwzoEkK6-2" source="-Z59WbJycSz_Zz4nOEAD-6" edge="1">
          <mxGeometry relative="1" as="geometry">
            <mxPoint x="259.99999999999955" y="460" as="targetPoint" />
            <mxPoint x="229.99999999999955" y="460" as="sourcePoint" />
          </mxGeometry>
        </mxCell>
        <mxCell id="-Z59WbJycSz_Zz4nOEAD-8" value="驗證輸入資料" style="rounded=1;whiteSpace=wrap;html=1;arcSize=40;fontColor=#000000;fillColor=#ffffc0;strokeColor=#ff0000;" parent="83ebNcft9Qn9WwzoEkK6-2" vertex="1">
          <mxGeometry x="259.99999999999955" y="440" width="120" height="40" as="geometry" />
        </mxCell>
        <mxCell id="-Z59WbJycSz_Zz4nOEAD-9" value="" style="edgeStyle=orthogonalEdgeStyle;html=1;verticalAlign=bottom;endArrow=open;endSize=8;strokeColor=#ff0000;rounded=0;" parent="83ebNcft9Qn9WwzoEkK6-2" source="-Z59WbJycSz_Zz4nOEAD-8" edge="1">
          <mxGeometry relative="1" as="geometry">
            <mxPoint x="319.99999999999955" y="520" as="targetPoint" />
          </mxGeometry>
        </mxCell>
        <mxCell id="-Z59WbJycSz_Zz4nOEAD-10" value="" style="rhombus;whiteSpace=wrap;html=1;fontColor=#000000;fillColor=#ffffc0;strokeColor=#ff0000;" parent="83ebNcft9Qn9WwzoEkK6-2" vertex="1">
          <mxGeometry x="279.99999999999955" y="520" width="80" height="40" as="geometry" />
        </mxCell>
        <mxCell id="-Z59WbJycSz_Zz4nOEAD-11" value="驗證成功" style="edgeStyle=orthogonalEdgeStyle;html=1;align=left;verticalAlign=bottom;endArrow=open;endSize=8;strokeColor=#ff0000;rounded=0;" parent="83ebNcft9Qn9WwzoEkK6-2" source="-Z59WbJycSz_Zz4nOEAD-10" edge="1">
          <mxGeometry x="-1" relative="1" as="geometry">
            <mxPoint x="479.99999999999955" y="600" as="targetPoint" />
            <mxPoint as="offset" />
          </mxGeometry>
        </mxCell>
        <mxCell id="-Z59WbJycSz_Zz4nOEAD-12" value="驗證失敗" style="edgeStyle=orthogonalEdgeStyle;html=1;align=left;verticalAlign=middle;endArrow=open;endSize=8;strokeColor=#ff0000;rounded=0;" parent="83ebNcft9Qn9WwzoEkK6-2" source="-Z59WbJycSz_Zz4nOEAD-10" edge="1">
          <mxGeometry x="-0.5062" relative="1" as="geometry">
            <mxPoint x="319.99999999999955" y="600" as="targetPoint" />
            <mxPoint as="offset" />
          </mxGeometry>
        </mxCell>
        <mxCell id="-Z59WbJycSz_Zz4nOEAD-13" value="顯示驗證失敗" style="rounded=1;whiteSpace=wrap;html=1;arcSize=40;fontColor=#000000;fillColor=#ffffc0;strokeColor=#ff0000;" parent="83ebNcft9Qn9WwzoEkK6-2" vertex="1">
          <mxGeometry x="259.99999999999955" y="600" width="120" height="40" as="geometry" />
        </mxCell>
        <mxCell id="-Z59WbJycSz_Zz4nOEAD-15" value="修改列表名稱" style="rounded=1;whiteSpace=wrap;html=1;arcSize=40;fontColor=#000000;fillColor=#ffffc0;strokeColor=#ff0000;" parent="83ebNcft9Qn9WwzoEkK6-2" vertex="1">
          <mxGeometry x="419.99999999999955" y="600" width="120" height="40" as="geometry" />
        </mxCell>
        <mxCell id="-Z59WbJycSz_Zz4nOEAD-16" value="" style="edgeStyle=orthogonalEdgeStyle;html=1;verticalAlign=bottom;endArrow=open;endSize=8;strokeColor=#ff0000;rounded=0;" parent="83ebNcft9Qn9WwzoEkK6-2" source="-Z59WbJycSz_Zz4nOEAD-15" edge="1">
          <mxGeometry relative="1" as="geometry">
            <mxPoint x="479.99999999999955" y="680" as="targetPoint" />
          </mxGeometry>
        </mxCell>
        <mxCell id="-Z59WbJycSz_Zz4nOEAD-17" value="顯示修改後的&lt;div&gt;列表名稱&lt;/div&gt;" style="rounded=1;whiteSpace=wrap;html=1;arcSize=40;fontColor=#000000;fillColor=#ffffc0;strokeColor=#ff0000;" parent="83ebNcft9Qn9WwzoEkK6-2" vertex="1">
          <mxGeometry x="419.99999999999955" y="680" width="120" height="40" as="geometry" />
        </mxCell>
        <mxCell id="-Z59WbJycSz_Zz4nOEAD-14" value="" style="edgeStyle=orthogonalEdgeStyle;html=1;verticalAlign=bottom;endArrow=open;endSize=8;strokeColor=#ff0000;rounded=0;exitX=0;exitY=0.5;exitDx=0;exitDy=0;entryX=0;entryY=0.5;entryDx=0;entryDy=0;" parent="83ebNcft9Qn9WwzoEkK6-2" source="-Z59WbJycSz_Zz4nOEAD-13" target="-Z59WbJycSz_Zz4nOEAD-4" edge="1">
          <mxGeometry relative="1" as="geometry">
            <mxPoint x="319.99999999999955" y="680" as="targetPoint" />
            <Array as="points">
              <mxPoint x="40" y="620" />
              <mxPoint x="40" y="380" />
            </Array>
          </mxGeometry>
        </mxCell>
        <mxCell id="-Z59WbJycSz_Zz4nOEAD-18" value="" style="edgeStyle=orthogonalEdgeStyle;html=1;verticalAlign=bottom;endArrow=open;endSize=8;strokeColor=#ff0000;rounded=0;exitX=0;exitY=0.5;exitDx=0;exitDy=0;entryX=1;entryY=0.5;entryDx=0;entryDy=0;" parent="83ebNcft9Qn9WwzoEkK6-2" source="-Z59WbJycSz_Zz4nOEAD-17" target="83ebNcft9Qn9WwzoEkK6-51" edge="1">
          <mxGeometry relative="1" as="geometry">
            <mxPoint x="479.99999999999955" y="760" as="targetPoint" />
          </mxGeometry>
        </mxCell>
        <mxCell id="83ebNcft9Qn9WwzoEkK6-3" value="系統" style="swimlane;startSize=20;html=1;" parent="83ebNcft9Qn9WwzoEkK6-1" vertex="1">
          <mxGeometry x="240" width="320" height="840" as="geometry">
            <mxRectangle x="120" width="40" height="480" as="alternateBounds" />
          </mxGeometry>
        </mxCell>
      </root>
    </mxGraphModel>
  </diagram>
</mxfile>
